<mxfile host="app.diagrams.net" modified="2022-10-17T17:04:11.192Z" agent="5.0 (Windows NT 10.0; Win64; x64) AppleWebKit/537.36 (KHTML, like Gecko) Chrome/106.0.0.0 Safari/537.36" etag="tT0nZVtzjiDAesEzvbJm" version="20.4.1" type="github">
  <diagram id="C5RBs43oDa-KdzZeNtuy" name="Page-1">
    <mxGraphModel dx="1740" dy="883" grid="1" gridSize="10" guides="1" tooltips="1" connect="1" arrows="1" fold="1" page="1" pageScale="1" pageWidth="827" pageHeight="1169" math="0" shadow="0">
      <root>
        <mxCell id="WIyWlLk6GJQsqaUBKTNV-0" />
        <mxCell id="WIyWlLk6GJQsqaUBKTNV-1" parent="WIyWlLk6GJQsqaUBKTNV-0" />
        <mxCell id="h_i_gSnvgIfFJRWZz87i-35" value="" style="rounded=0;whiteSpace=wrap;html=1;fontFamily=Times New Roman;fontSize=8;" vertex="1" parent="WIyWlLk6GJQsqaUBKTNV-1">
          <mxGeometry x="788.25" y="190" width="560" height="210" as="geometry" />
        </mxCell>
        <mxCell id="h_i_gSnvgIfFJRWZz87i-37" value="" style="rounded=0;whiteSpace=wrap;html=1;fontFamily=Times New Roman;fontSize=8;" vertex="1" parent="WIyWlLk6GJQsqaUBKTNV-1">
          <mxGeometry x="73.5" y="70" width="610" height="330" as="geometry" />
        </mxCell>
        <mxCell id="h_i_gSnvgIfFJRWZz87i-114" style="edgeStyle=orthogonalEdgeStyle;rounded=0;orthogonalLoop=1;jettySize=auto;html=1;exitX=1;exitY=0;exitDx=0;exitDy=0;entryX=0.857;entryY=0.344;entryDx=0;entryDy=0;entryPerimeter=0;fontFamily=Helvetica;fontSize=24;" edge="1" parent="WIyWlLk6GJQsqaUBKTNV-1">
          <mxGeometry relative="1" as="geometry">
            <mxPoint x="596.9999999999995" y="169" as="sourcePoint" />
            <mxPoint x="596.27" y="179.84000000000015" as="targetPoint" />
          </mxGeometry>
        </mxCell>
        <mxCell id="h_i_gSnvgIfFJRWZz87i-10" value="" style="rounded=0;whiteSpace=wrap;html=1;fontFamily=Times New Roman;fontSize=8;dashed=1;" vertex="1" parent="WIyWlLk6GJQsqaUBKTNV-1">
          <mxGeometry x="160" y="170" width="437" height="120" as="geometry" />
        </mxCell>
        <mxCell id="h_i_gSnvgIfFJRWZz87i-1" value="" style="rounded=0;whiteSpace=wrap;html=1;fontFamily=Times New Roman;fontSize=8;dashed=1;" vertex="1" parent="WIyWlLk6GJQsqaUBKTNV-1">
          <mxGeometry x="239" y="80" width="280" height="60" as="geometry" />
        </mxCell>
        <mxCell id="WIyWlLk6GJQsqaUBKTNV-3" value="POI点群" style="rounded=1;whiteSpace=wrap;html=1;fontSize=12;glass=0;strokeWidth=1;shadow=0;" parent="WIyWlLk6GJQsqaUBKTNV-1" vertex="1">
          <mxGeometry x="248" y="90" width="120" height="40" as="geometry" />
        </mxCell>
        <mxCell id="WIyWlLk6GJQsqaUBKTNV-9" value="" style="edgeStyle=orthogonalEdgeStyle;rounded=0;html=1;jettySize=auto;orthogonalLoop=1;fontSize=11;endArrow=block;endFill=0;endSize=8;strokeWidth=1;shadow=0;labelBackgroundColor=none;exitX=0.5;exitY=1;exitDx=0;exitDy=0;entryX=0.5;entryY=0;entryDx=0;entryDy=0;spacing=2;" parent="WIyWlLk6GJQsqaUBKTNV-1" target="h_i_gSnvgIfFJRWZz87i-10" edge="1" source="h_i_gSnvgIfFJRWZz87i-1">
          <mxGeometry y="10" relative="1" as="geometry">
            <mxPoint as="offset" />
            <mxPoint x="220" y="370" as="sourcePoint" />
            <mxPoint x="379" y="140" as="targetPoint" />
          </mxGeometry>
        </mxCell>
        <mxCell id="WIyWlLk6GJQsqaUBKTNV-12" value="&lt;font style=&quot;font-size: 24px;&quot;&gt;&lt;b&gt;参数拟合器&lt;/b&gt;&lt;/font&gt;" style="rounded=1;whiteSpace=wrap;html=1;fontSize=12;glass=0;strokeWidth=1;shadow=0;" parent="WIyWlLk6GJQsqaUBKTNV-1" vertex="1">
          <mxGeometry x="313.25" y="350" width="131.5" height="40" as="geometry" />
        </mxCell>
        <mxCell id="limIQbG5P-s_eVY_uHMg-7" value="&lt;p&gt;&lt;br&gt;&lt;/p&gt;" style="rounded=0;html=1;jettySize=auto;orthogonalLoop=1;fontSize=8;endArrow=block;endFill=0;endSize=8;strokeWidth=1;shadow=0;labelBackgroundColor=none;edgeStyle=orthogonalEdgeStyle;fontFamily=Verdana;align=center;exitX=0.5;exitY=1;exitDx=0;exitDy=0;entryX=0.5;entryY=0;entryDx=0;entryDy=0;" parent="WIyWlLk6GJQsqaUBKTNV-1" target="WIyWlLk6GJQsqaUBKTNV-12" edge="1">
          <mxGeometry y="10" relative="1" as="geometry">
            <mxPoint as="offset" />
            <mxPoint x="379" y="290" as="sourcePoint" />
            <mxPoint x="379" y="350" as="targetPoint" />
            <Array as="points" />
          </mxGeometry>
        </mxCell>
        <mxCell id="limIQbG5P-s_eVY_uHMg-9" value="&lt;span style=&quot;font-family: &amp;quot;Times New Roman&amp;quot;; font-size: 24px; font-weight: 700;&quot;&gt;综合控制器&lt;/span&gt;" style="rounded=1;whiteSpace=wrap;html=1;fontSize=12;glass=0;strokeWidth=1;shadow=0;" parent="WIyWlLk6GJQsqaUBKTNV-1" vertex="1">
          <mxGeometry x="669.44" y="595" width="123.25" height="60" as="geometry" />
        </mxCell>
        <mxCell id="limIQbG5P-s_eVY_uHMg-15" value="基于图论的选取方法" style="rounded=1;whiteSpace=wrap;html=1;fontSize=12;glass=0;strokeWidth=1;shadow=0;" parent="WIyWlLk6GJQsqaUBKTNV-1" vertex="1">
          <mxGeometry x="455" y="239" width="120" height="40" as="geometry" />
        </mxCell>
        <mxCell id="limIQbG5P-s_eVY_uHMg-20" value="空间相似度" style="text;html=1;strokeColor=default;fillColor=none;align=center;verticalAlign=middle;whiteSpace=wrap;rounded=0;fontFamily=Times New Roman;fontSize=18;labelBorderColor=none;" parent="WIyWlLk6GJQsqaUBKTNV-1" vertex="1">
          <mxGeometry x="881.69" y="206.5" width="110.5" height="30" as="geometry" />
        </mxCell>
        <mxCell id="h_i_gSnvgIfFJRWZz87i-0" value="众源道路数据" style="rounded=1;whiteSpace=wrap;html=1;fontSize=12;glass=0;strokeWidth=1;shadow=0;" vertex="1" parent="WIyWlLk6GJQsqaUBKTNV-1">
          <mxGeometry x="388" y="90" width="120" height="40" as="geometry" />
        </mxCell>
        <mxCell id="h_i_gSnvgIfFJRWZz87i-2" value="样本数据" style="text;html=1;strokeColor=none;fillColor=none;align=center;verticalAlign=middle;whiteSpace=wrap;rounded=0;fontSize=18;" vertex="1" parent="WIyWlLk6GJQsqaUBKTNV-1">
          <mxGeometry x="140" y="95" width="90" height="30" as="geometry" />
        </mxCell>
        <mxCell id="h_i_gSnvgIfFJRWZz87i-4" value="&lt;font style=&quot;font-size: 12px;&quot;&gt;基于Voronoi 图的点群选取&lt;/font&gt;" style="rounded=1;whiteSpace=wrap;html=1;fontSize=12;glass=0;strokeWidth=1;shadow=0;" vertex="1" parent="WIyWlLk6GJQsqaUBKTNV-1">
          <mxGeometry x="180" y="179" width="120" height="40" as="geometry" />
        </mxCell>
        <mxCell id="h_i_gSnvgIfFJRWZz87i-5" value="&lt;font style=&quot;font-size: 12px;&quot;&gt;&lt;span style=&quot;font-family: 等线;&quot;&gt;基于&lt;/span&gt;&lt;span style=&quot;font-family: 微软雅黑;&quot;&gt; &lt;/span&gt;&lt;span style=&quot;font-family: 微软雅黑;&quot;&gt;stroke&lt;br/&gt;&lt;/span&gt;&lt;span style=&quot;font-family: 等线;&quot;&gt;的道路网选取&lt;/span&gt;&lt;span style=&quot;font-family: 等线;&quot;&gt;算法&lt;/span&gt;&lt;/font&gt;" style="rounded=1;whiteSpace=wrap;html=1;fontSize=12;glass=0;strokeWidth=1;shadow=0;" vertex="1" parent="WIyWlLk6GJQsqaUBKTNV-1">
          <mxGeometry x="318.5" y="179" width="120" height="40" as="geometry" />
        </mxCell>
        <mxCell id="h_i_gSnvgIfFJRWZz87i-6" value="&lt;font style=&quot;font-size: 12px;&quot;&gt;Douglas-Peucker算法&lt;/font&gt;" style="rounded=1;whiteSpace=wrap;html=1;fontSize=12;glass=0;strokeWidth=1;shadow=0;" vertex="1" parent="WIyWlLk6GJQsqaUBKTNV-1">
          <mxGeometry x="318.5" y="239" width="120" height="40" as="geometry" />
        </mxCell>
        <mxCell id="h_i_gSnvgIfFJRWZz87i-7" value="基于凸壳的点群化简算法" style="rounded=1;whiteSpace=wrap;html=1;fontSize=12;glass=0;strokeWidth=1;shadow=0;" vertex="1" parent="WIyWlLk6GJQsqaUBKTNV-1">
          <mxGeometry x="180" y="239" width="120" height="40" as="geometry" />
        </mxCell>
        <mxCell id="h_i_gSnvgIfFJRWZz87i-8" value="&lt;font style=&quot;font-size: 12px;&quot;&gt;基于包络区的线化简算法&lt;/font&gt;" style="rounded=1;whiteSpace=wrap;html=1;fontSize=12;glass=0;strokeWidth=1;shadow=0;" vertex="1" parent="WIyWlLk6GJQsqaUBKTNV-1">
          <mxGeometry x="455" y="179" width="120" height="40" as="geometry" />
        </mxCell>
        <mxCell id="h_i_gSnvgIfFJRWZz87i-12" value="综合算子" style="text;html=1;strokeColor=none;fillColor=none;align=center;verticalAlign=middle;whiteSpace=wrap;rounded=0;fontSize=18;" vertex="1" parent="WIyWlLk6GJQsqaUBKTNV-1">
          <mxGeometry x="80" y="203" width="80" height="30" as="geometry" />
        </mxCell>
        <mxCell id="h_i_gSnvgIfFJRWZz87i-16" value="压缩率（0%----100%）" style="rounded=1;whiteSpace=wrap;html=1;fontSize=12;glass=0;strokeWidth=1;shadow=0;" vertex="1" parent="WIyWlLk6GJQsqaUBKTNV-1">
          <mxGeometry x="454" y="300" width="156" height="40" as="geometry" />
        </mxCell>
        <mxCell id="h_i_gSnvgIfFJRWZz87i-18" value="" style="endArrow=none;html=1;rounded=0;fontFamily=Helvetica;fontSize=12;entryX=0;entryY=0.5;entryDx=0;entryDy=0;" edge="1" parent="WIyWlLk6GJQsqaUBKTNV-1" target="h_i_gSnvgIfFJRWZz87i-16">
          <mxGeometry width="50" height="50" relative="1" as="geometry">
            <mxPoint x="380" y="320" as="sourcePoint" />
            <mxPoint x="450" y="320" as="targetPoint" />
          </mxGeometry>
        </mxCell>
        <mxCell id="h_i_gSnvgIfFJRWZz87i-20" value="参数与压缩率函数拟合" style="text;html=1;strokeColor=none;fillColor=none;align=center;verticalAlign=middle;whiteSpace=wrap;rounded=0;fontFamily=Helvetica;fontSize=18;" vertex="1" parent="WIyWlLk6GJQsqaUBKTNV-1">
          <mxGeometry x="190" y="305" width="183" height="30" as="geometry" />
        </mxCell>
        <mxCell id="h_i_gSnvgIfFJRWZz87i-23" value="转角函数" style="rounded=1;whiteSpace=wrap;html=1;fontSize=12;glass=0;strokeWidth=1;shadow=0;horizontal=1;align=center;" vertex="1" parent="WIyWlLk6GJQsqaUBKTNV-1">
          <mxGeometry x="875" y="300" width="22" height="85" as="geometry" />
        </mxCell>
        <mxCell id="h_i_gSnvgIfFJRWZz87i-24" value="Hausdoff距离" style="rounded=1;whiteSpace=wrap;html=1;fontSize=12;glass=0;strokeWidth=1;shadow=0;" vertex="1" parent="WIyWlLk6GJQsqaUBKTNV-1">
          <mxGeometry x="909.88" y="300" width="54.12" height="85" as="geometry" />
        </mxCell>
        <mxCell id="h_i_gSnvgIfFJRWZz87i-33" value="......" style="text;html=1;strokeColor=none;fillColor=none;align=center;verticalAlign=middle;whiteSpace=wrap;rounded=0;fontSize=12;" vertex="1" parent="WIyWlLk6GJQsqaUBKTNV-1">
          <mxGeometry x="1153.75" y="304.5" width="60" height="30" as="geometry" />
        </mxCell>
        <mxCell id="h_i_gSnvgIfFJRWZz87i-36" value="&lt;font style=&quot;font-size: 24px;&quot;&gt;质量评估&lt;/font&gt;" style="text;html=1;strokeColor=none;fillColor=none;align=center;verticalAlign=middle;whiteSpace=wrap;rounded=0;dashed=1;fontFamily=Times New Roman;fontSize=8;fontStyle=1" vertex="1" parent="WIyWlLk6GJQsqaUBKTNV-1">
          <mxGeometry x="1369.5" y="287" width="47.75" height="30" as="geometry" />
        </mxCell>
        <mxCell id="h_i_gSnvgIfFJRWZz87i-38" value="&lt;font style=&quot;font-size: 24px;&quot;&gt;关系拟合&lt;/font&gt;" style="text;html=1;strokeColor=none;fillColor=none;align=center;verticalAlign=middle;whiteSpace=wrap;rounded=0;dashed=1;fontFamily=Times New Roman;fontSize=8;fontStyle=1;horizontal=1;" vertex="1" parent="WIyWlLk6GJQsqaUBKTNV-1">
          <mxGeometry x="28.5" y="190" width="31.5" height="30" as="geometry" />
        </mxCell>
        <mxCell id="h_i_gSnvgIfFJRWZz87i-52" value="" style="edgeStyle=elbowEdgeStyle;elbow=vertical;endArrow=classic;html=1;rounded=0;fontFamily=Helvetica;fontSize=24;exitX=0.5;exitY=1;exitDx=0;exitDy=0;entryX=0.5;entryY=0;entryDx=0;entryDy=0;" edge="1" parent="WIyWlLk6GJQsqaUBKTNV-1" source="limIQbG5P-s_eVY_uHMg-20" target="h_i_gSnvgIfFJRWZz87i-23">
          <mxGeometry width="50" height="50" relative="1" as="geometry">
            <mxPoint x="1035.75" y="319.5" as="sourcePoint" />
            <mxPoint x="1085.75" y="269.5" as="targetPoint" />
          </mxGeometry>
        </mxCell>
        <mxCell id="h_i_gSnvgIfFJRWZz87i-53" value="" style="endArrow=classic;html=1;rounded=0;fontFamily=Helvetica;fontSize=24;entryX=0.5;entryY=0;entryDx=0;entryDy=0;" edge="1" parent="WIyWlLk6GJQsqaUBKTNV-1" source="limIQbG5P-s_eVY_uHMg-20" target="h_i_gSnvgIfFJRWZz87i-24">
          <mxGeometry width="50" height="50" relative="1" as="geometry">
            <mxPoint x="1035.75" y="319.5" as="sourcePoint" />
            <mxPoint x="1085.75" y="269.5" as="targetPoint" />
          </mxGeometry>
        </mxCell>
        <mxCell id="h_i_gSnvgIfFJRWZz87i-55" value="弯曲曲率" style="rounded=1;whiteSpace=wrap;html=1;fontSize=12;glass=0;strokeWidth=1;shadow=0;horizontal=1;align=center;direction=south;" vertex="1" parent="WIyWlLk6GJQsqaUBKTNV-1">
          <mxGeometry x="835" y="300" width="22" height="85" as="geometry" />
        </mxCell>
        <mxCell id="h_i_gSnvgIfFJRWZz87i-56" value="" style="edgeStyle=elbowEdgeStyle;elbow=vertical;endArrow=classic;html=1;rounded=0;fontFamily=Helvetica;fontSize=24;exitX=0.5;exitY=1;exitDx=0;exitDy=0;entryX=0;entryY=0.5;entryDx=0;entryDy=0;" edge="1" parent="WIyWlLk6GJQsqaUBKTNV-1" source="limIQbG5P-s_eVY_uHMg-20" target="h_i_gSnvgIfFJRWZz87i-55">
          <mxGeometry width="50" height="50" relative="1" as="geometry">
            <mxPoint x="969.75" y="219.5" as="sourcePoint" />
            <mxPoint x="880.75" y="279.5" as="targetPoint" />
          </mxGeometry>
        </mxCell>
        <mxCell id="h_i_gSnvgIfFJRWZz87i-59" value="&lt;span style=&quot;font-family: 微软雅黑;&quot;&gt;......&lt;/span&gt;" style="rounded=1;whiteSpace=wrap;html=1;fontSize=12;glass=0;strokeWidth=1;shadow=0;" vertex="1" parent="WIyWlLk6GJQsqaUBKTNV-1">
          <mxGeometry x="1025" y="300" width="32.5" height="85" as="geometry" />
        </mxCell>
        <mxCell id="h_i_gSnvgIfFJRWZz87i-60" value="" style="edgeStyle=elbowEdgeStyle;elbow=vertical;endArrow=classic;html=1;rounded=0;fontFamily=Helvetica;fontSize=24;exitX=0.5;exitY=1;exitDx=0;exitDy=0;entryX=0.5;entryY=0;entryDx=0;entryDy=0;" edge="1" parent="WIyWlLk6GJQsqaUBKTNV-1" source="limIQbG5P-s_eVY_uHMg-20" target="h_i_gSnvgIfFJRWZz87i-59">
          <mxGeometry width="50" height="50" relative="1" as="geometry">
            <mxPoint x="947.75" y="219.5" as="sourcePoint" />
            <mxPoint x="1032.75" y="279.5" as="targetPoint" />
          </mxGeometry>
        </mxCell>
        <mxCell id="h_i_gSnvgIfFJRWZz87i-63" value="" style="edgeStyle=elbowEdgeStyle;elbow=vertical;endArrow=classic;html=1;rounded=0;fontFamily=Helvetica;fontSize=24;exitX=0.5;exitY=1;exitDx=0;exitDy=0;entryX=0.5;entryY=0;entryDx=0;entryDy=0;" edge="1" parent="WIyWlLk6GJQsqaUBKTNV-1" source="limIQbG5P-s_eVY_uHMg-20" target="h_i_gSnvgIfFJRWZz87i-64">
          <mxGeometry width="50" height="50" relative="1" as="geometry">
            <mxPoint x="947.75" y="219.5" as="sourcePoint" />
            <mxPoint x="991.25" y="269.5" as="targetPoint" />
          </mxGeometry>
        </mxCell>
        <mxCell id="h_i_gSnvgIfFJRWZz87i-64" value="&lt;span style=&quot;font-family: 微软雅黑;&quot;&gt;欧氏距离&lt;/span&gt;" style="rounded=1;whiteSpace=wrap;html=1;fontSize=12;glass=0;strokeWidth=1;shadow=0;" vertex="1" parent="WIyWlLk6GJQsqaUBKTNV-1">
          <mxGeometry x="985" y="300" width="22" height="85" as="geometry" />
        </mxCell>
        <mxCell id="h_i_gSnvgIfFJRWZz87i-68" value="几何精度" style="text;html=1;strokeColor=default;fillColor=none;align=center;verticalAlign=middle;whiteSpace=wrap;rounded=0;fontFamily=Times New Roman;fontSize=18;labelBorderColor=none;" vertex="1" parent="WIyWlLk6GJQsqaUBKTNV-1">
          <mxGeometry x="1151" y="210" width="75" height="30" as="geometry" />
        </mxCell>
        <mxCell id="h_i_gSnvgIfFJRWZz87i-69" value="缓冲区限差" style="rounded=1;whiteSpace=wrap;html=1;fontSize=12;glass=0;strokeWidth=1;shadow=0;horizontal=1;align=center;" vertex="1" parent="WIyWlLk6GJQsqaUBKTNV-1">
          <mxGeometry x="1138.5" y="300" width="22" height="85" as="geometry" />
        </mxCell>
        <mxCell id="h_i_gSnvgIfFJRWZz87i-70" value="位置误差" style="rounded=1;whiteSpace=wrap;html=1;fontSize=12;glass=0;strokeWidth=1;shadow=0;" vertex="1" parent="WIyWlLk6GJQsqaUBKTNV-1">
          <mxGeometry x="1177.5" y="300" width="22" height="85" as="geometry" />
        </mxCell>
        <mxCell id="h_i_gSnvgIfFJRWZz87i-71" value="" style="edgeStyle=elbowEdgeStyle;elbow=vertical;endArrow=classic;html=1;rounded=0;fontFamily=Helvetica;fontSize=24;exitX=0.5;exitY=1;exitDx=0;exitDy=0;entryX=0.5;entryY=0;entryDx=0;entryDy=0;" edge="1" parent="WIyWlLk6GJQsqaUBKTNV-1" source="h_i_gSnvgIfFJRWZz87i-68" target="h_i_gSnvgIfFJRWZz87i-69">
          <mxGeometry width="50" height="50" relative="1" as="geometry">
            <mxPoint x="1264.25" y="319.5" as="sourcePoint" />
            <mxPoint x="1314.25" y="269.5" as="targetPoint" />
          </mxGeometry>
        </mxCell>
        <mxCell id="h_i_gSnvgIfFJRWZz87i-72" value="" style="endArrow=classic;html=1;rounded=0;fontFamily=Helvetica;fontSize=24;entryX=0.5;entryY=0;entryDx=0;entryDy=0;" edge="1" parent="WIyWlLk6GJQsqaUBKTNV-1" source="h_i_gSnvgIfFJRWZz87i-68" target="h_i_gSnvgIfFJRWZz87i-70">
          <mxGeometry width="50" height="50" relative="1" as="geometry">
            <mxPoint x="1264.25" y="319.5" as="sourcePoint" />
            <mxPoint x="1314.25" y="269.5" as="targetPoint" />
          </mxGeometry>
        </mxCell>
        <mxCell id="h_i_gSnvgIfFJRWZz87i-73" value="矢量位移" style="rounded=1;whiteSpace=wrap;html=1;fontSize=12;glass=0;strokeWidth=1;shadow=0;horizontal=1;align=center;direction=south;" vertex="1" parent="WIyWlLk6GJQsqaUBKTNV-1">
          <mxGeometry x="1098.5" y="300" width="22" height="85" as="geometry" />
        </mxCell>
        <mxCell id="h_i_gSnvgIfFJRWZz87i-74" value="" style="edgeStyle=elbowEdgeStyle;elbow=vertical;endArrow=classic;html=1;rounded=0;fontFamily=Helvetica;fontSize=24;exitX=0.5;exitY=1;exitDx=0;exitDy=0;entryX=0;entryY=0.5;entryDx=0;entryDy=0;" edge="1" parent="WIyWlLk6GJQsqaUBKTNV-1" source="h_i_gSnvgIfFJRWZz87i-68" target="h_i_gSnvgIfFJRWZz87i-73">
          <mxGeometry width="50" height="50" relative="1" as="geometry">
            <mxPoint x="1198.25" y="219.5" as="sourcePoint" />
            <mxPoint x="1109.25" y="279.5" as="targetPoint" />
          </mxGeometry>
        </mxCell>
        <mxCell id="h_i_gSnvgIfFJRWZz87i-75" value="&lt;span style=&quot;font-family: 微软雅黑;&quot;&gt;......&lt;/span&gt;" style="rounded=1;whiteSpace=wrap;html=1;fontSize=12;glass=0;strokeWidth=1;shadow=0;" vertex="1" parent="WIyWlLk6GJQsqaUBKTNV-1">
          <mxGeometry x="1259" y="300" width="32.5" height="85" as="geometry" />
        </mxCell>
        <mxCell id="h_i_gSnvgIfFJRWZz87i-76" value="" style="edgeStyle=elbowEdgeStyle;elbow=vertical;endArrow=classic;html=1;rounded=0;fontFamily=Helvetica;fontSize=24;exitX=0.5;exitY=1;exitDx=0;exitDy=0;entryX=0.5;entryY=0;entryDx=0;entryDy=0;" edge="1" parent="WIyWlLk6GJQsqaUBKTNV-1" source="h_i_gSnvgIfFJRWZz87i-68" target="h_i_gSnvgIfFJRWZz87i-75">
          <mxGeometry width="50" height="50" relative="1" as="geometry">
            <mxPoint x="1176.25" y="219.5" as="sourcePoint" />
            <mxPoint x="1261.25" y="279.5" as="targetPoint" />
          </mxGeometry>
        </mxCell>
        <mxCell id="h_i_gSnvgIfFJRWZz87i-77" value="" style="edgeStyle=elbowEdgeStyle;elbow=vertical;endArrow=classic;html=1;rounded=0;fontFamily=Helvetica;fontSize=24;exitX=0.5;exitY=1;exitDx=0;exitDy=0;entryX=0.5;entryY=0;entryDx=0;entryDy=0;" edge="1" parent="WIyWlLk6GJQsqaUBKTNV-1" source="h_i_gSnvgIfFJRWZz87i-68" target="h_i_gSnvgIfFJRWZz87i-78">
          <mxGeometry width="50" height="50" relative="1" as="geometry">
            <mxPoint x="1176.25" y="219.5" as="sourcePoint" />
            <mxPoint x="1219.75" y="269.5" as="targetPoint" />
          </mxGeometry>
        </mxCell>
        <mxCell id="h_i_gSnvgIfFJRWZz87i-78" value="&lt;span style=&quot;font-family: 微软雅黑;&quot;&gt;位移标准差&lt;/span&gt;" style="rounded=1;whiteSpace=wrap;html=1;fontSize=12;glass=0;strokeWidth=1;shadow=0;" vertex="1" parent="WIyWlLk6GJQsqaUBKTNV-1">
          <mxGeometry x="1220.5" y="300" width="22" height="85" as="geometry" />
        </mxCell>
        <mxCell id="h_i_gSnvgIfFJRWZz87i-80" value="&lt;p&gt;&lt;br&gt;&lt;/p&gt;" style="rounded=0;html=1;jettySize=auto;orthogonalLoop=1;fontSize=8;endArrow=block;endFill=0;endSize=8;strokeWidth=1;shadow=0;labelBackgroundColor=none;edgeStyle=orthogonalEdgeStyle;fontFamily=Verdana;align=center;entryX=0.5;entryY=0;entryDx=0;entryDy=0;exitX=0.5;exitY=1;exitDx=0;exitDy=0;" edge="1" parent="WIyWlLk6GJQsqaUBKTNV-1" source="h_i_gSnvgIfFJRWZz87i-35" target="limIQbG5P-s_eVY_uHMg-9">
          <mxGeometry y="10" relative="1" as="geometry">
            <mxPoint as="offset" />
            <mxPoint x="388.5" y="426.5000000000001" as="sourcePoint" />
            <mxPoint x="389" y="470" as="targetPoint" />
            <Array as="points" />
          </mxGeometry>
        </mxCell>
        <mxCell id="h_i_gSnvgIfFJRWZz87i-83" value="" style="rounded=0;whiteSpace=wrap;html=1;fontFamily=Times New Roman;fontSize=8;" vertex="1" parent="WIyWlLk6GJQsqaUBKTNV-1">
          <mxGeometry x="422" y="510" width="140" height="230" as="geometry" />
        </mxCell>
        <mxCell id="h_i_gSnvgIfFJRWZz87i-106" value="&lt;p&gt;&lt;br&gt;&lt;/p&gt;" style="rounded=0;html=1;jettySize=auto;orthogonalLoop=1;fontSize=8;endArrow=block;endFill=0;endSize=8;strokeWidth=1;shadow=0;labelBackgroundColor=none;edgeStyle=orthogonalEdgeStyle;fontFamily=Verdana;align=center;entryX=0;entryY=0.5;entryDx=0;entryDy=0;exitX=1;exitY=0.5;exitDx=0;exitDy=0;" edge="1" parent="WIyWlLk6GJQsqaUBKTNV-1" source="h_i_gSnvgIfFJRWZz87i-83" target="limIQbG5P-s_eVY_uHMg-9">
          <mxGeometry y="10" relative="1" as="geometry">
            <mxPoint as="offset" />
            <mxPoint x="743.69" y="469" as="sourcePoint" />
            <mxPoint x="743.69" y="560" as="targetPoint" />
            <Array as="points" />
          </mxGeometry>
        </mxCell>
        <mxCell id="h_i_gSnvgIfFJRWZz87i-107" value="&lt;font style=&quot;font-size: 18px;&quot;&gt;压缩率&lt;/font&gt;" style="text;html=1;strokeColor=none;fillColor=none;align=center;verticalAlign=middle;whiteSpace=wrap;rounded=0;labelBorderColor=none;fontFamily=Helvetica;fontSize=24;" vertex="1" parent="WIyWlLk6GJQsqaUBKTNV-1">
          <mxGeometry x="578.94" y="594" width="74.25" height="30" as="geometry" />
        </mxCell>
        <mxCell id="h_i_gSnvgIfFJRWZz87i-108" value="&lt;p&gt;&lt;br&gt;&lt;/p&gt;" style="rounded=0;html=1;jettySize=auto;orthogonalLoop=1;fontSize=8;endArrow=block;endFill=0;endSize=8;strokeWidth=1;shadow=0;labelBackgroundColor=none;edgeStyle=orthogonalEdgeStyle;fontFamily=Verdana;align=center;entryX=0;entryY=0.5;entryDx=0;entryDy=0;" edge="1" parent="WIyWlLk6GJQsqaUBKTNV-1" source="limIQbG5P-s_eVY_uHMg-9" target="h_i_gSnvgIfFJRWZz87i-113">
          <mxGeometry y="10" relative="1" as="geometry">
            <mxPoint as="offset" />
            <mxPoint x="890.32" y="678.07" as="sourcePoint" />
            <mxPoint x="873.19" y="635" as="targetPoint" />
            <Array as="points" />
          </mxGeometry>
        </mxCell>
        <mxCell id="h_i_gSnvgIfFJRWZz87i-109" value="&lt;font style=&quot;font-size: 24px;&quot;&gt;场景分析&lt;/font&gt;" style="text;html=1;strokeColor=none;fillColor=none;align=center;verticalAlign=middle;whiteSpace=wrap;rounded=0;dashed=1;fontFamily=Times New Roman;fontSize=8;fontStyle=1" vertex="1" parent="WIyWlLk6GJQsqaUBKTNV-1">
          <mxGeometry x="373" y="594" width="35.5" height="30" as="geometry" />
        </mxCell>
        <mxCell id="h_i_gSnvgIfFJRWZz87i-110" value="网络传输的速率" style="rounded=1;whiteSpace=wrap;html=1;fontSize=12;glass=0;strokeWidth=1;shadow=0;" vertex="1" parent="WIyWlLk6GJQsqaUBKTNV-1">
          <mxGeometry x="432" y="519.5" width="120" height="40" as="geometry" />
        </mxCell>
        <mxCell id="h_i_gSnvgIfFJRWZz87i-111" value="设备容量" style="rounded=1;whiteSpace=wrap;html=1;fontSize=12;glass=0;strokeWidth=1;shadow=0;" vertex="1" parent="WIyWlLk6GJQsqaUBKTNV-1">
          <mxGeometry x="432" y="575" width="120" height="40" as="geometry" />
        </mxCell>
        <mxCell id="h_i_gSnvgIfFJRWZz87i-112" value="处理速度" style="rounded=1;whiteSpace=wrap;html=1;fontSize=12;glass=0;strokeWidth=1;shadow=0;" vertex="1" parent="WIyWlLk6GJQsqaUBKTNV-1">
          <mxGeometry x="432" y="630" width="120" height="40" as="geometry" />
        </mxCell>
        <mxCell id="h_i_gSnvgIfFJRWZz87i-113" value="&lt;font style=&quot;font-size: 24px;&quot;&gt;&lt;b&gt;用户服务&lt;/b&gt;&lt;/font&gt;" style="rounded=1;whiteSpace=wrap;html=1;fontSize=12;glass=0;strokeWidth=1;shadow=0;" vertex="1" parent="WIyWlLk6GJQsqaUBKTNV-1">
          <mxGeometry x="872.19" y="605" width="120" height="40" as="geometry" />
        </mxCell>
        <mxCell id="h_i_gSnvgIfFJRWZz87i-116" value="分辨率" style="rounded=1;whiteSpace=wrap;html=1;fontSize=12;glass=0;strokeWidth=1;shadow=0;" vertex="1" parent="WIyWlLk6GJQsqaUBKTNV-1">
          <mxGeometry x="430.25" y="690" width="120" height="40" as="geometry" />
        </mxCell>
        <mxCell id="h_i_gSnvgIfFJRWZz87i-124" value="&lt;p&gt;&lt;br&gt;&lt;/p&gt;" style="rounded=0;html=1;jettySize=auto;orthogonalLoop=1;fontSize=8;endArrow=block;endFill=0;endSize=8;strokeWidth=1;shadow=0;labelBackgroundColor=none;edgeStyle=orthogonalEdgeStyle;fontFamily=Verdana;align=center;exitX=0.5;exitY=1;exitDx=0;exitDy=0;entryX=0.5;entryY=0;entryDx=0;entryDy=0;" edge="1" parent="WIyWlLk6GJQsqaUBKTNV-1" source="h_i_gSnvgIfFJRWZz87i-37" target="limIQbG5P-s_eVY_uHMg-9">
          <mxGeometry y="10" relative="1" as="geometry">
            <mxPoint as="offset" />
            <mxPoint x="1078.25" y="344.5" as="sourcePoint" />
            <mxPoint x="760" y="610" as="targetPoint" />
            <Array as="points" />
          </mxGeometry>
        </mxCell>
      </root>
    </mxGraphModel>
  </diagram>
</mxfile>
